<svg xmlns="http://www.w3.org/2000/svg" viewBox="0 0 149.69 201.91">
  <g data-name="Layer 2">
    <g data-name="katman 1">
      <g data-name="0IYdAV">
        <path d="M149.69 201.91H.09c0-3.7-.2-7.3 0-10.9 1-19.4 6.1-37.9 12.7-56 4.6-12.8 8.8-25.8 11.2-39.3 1.4-8 2.3-16 3.5-24 2.1-15.2 4.6-30.3 10.4-44.6a55.58 55.58 0 0112.4-19.3c4.2-4.2 9.1-7 15.2-7.4a102.69 102.69 0 0112.4-.3c6.5.4 11.7 3.7 16.2 8.3 6.9 7.2 10.9 16.1 13 25.6 1.8 7.8 3 15.7 4.2 23.5a353.71 353.71 0 0024 83.6c2.5 5.8 5 11.7 7.3 17.6 3.1 8.1 4.1 16.6 5.1 25.1.6 5.4 1.3 10.9 2 16.3a10.82 10.82 0 000 1.8zm-50.3-153.2c-.1-1.5-.1-3.8-.3-6.1-.5-6.5-1.4-12.9-4.4-18.7-3.5-6.9-8.5-12.2-16.2-14a32.67 32.67 0 00-16.7.5 18.29 18.29 0 00-11.7 9.1 48.94 48.94 0 00-4.2 11c-2.9 11.2-3.3 22.7-3.2 34.2 0 7.9 2.4 15.4 4.8 22.9a41.78 41.78 0 006 12.6c5.9 7.8 15.3 10.9 23.7 7.7 6.1-2.3 10.3-6.8 13-12.6 3.1-6.6 4.7-13.6 6.1-20.6 1.6-8.4 3-16.8 3.1-26z"/>
        <path d="M99.39 48.71a141.25 141.25 0 01-3.1 25.9c-1.4 7.1-3 14.1-6.1 20.6-2.7 5.8-6.9 10.3-13 12.6-8.4 3.2-17.7.1-23.7-7.7a39.53 39.53 0 01-6-12.6c-2.4-7.5-4.7-15-4.8-22.9-.1-11.5.4-23 3.2-34.2a60.87 60.87 0 014.2-11c2.4-4.7 6.5-7.6 11.7-9.1a32.61 32.61 0 0116.7-.5c7.8 1.8 12.7 7.1 16.2 14 3 5.9 3.9 12.3 4.4 18.7.2 2.4.2 4.7.3 6.2zm-41.7 25.2c0-3 .2-6.1 0-9.1-.2-2.6-1.4-3.6-3.9-3.5s-4.1 1.4-4.3 3.9a8.2 8.2 0 00.2 2.2c1 4 2.1 8 3.2 11.9a13.18 13.18 0 001.8 3.3c.4.6 1.4.7 2.1 1.1a6 6 0 00.8-2.1c.2-2.61.1-5.2.1-7.7zm26.7 14.7h-3.6c-6.8 0-13.7-.1-20.5-.1-.6 0-1.5.2-1.6.6a1.92 1.92 0 00.5 1.7 15.24 15.24 0 004 3.2 20.2 20.2 0 0016.5-.3 9.84 9.84 0 004.7-5.1zm7.1-21.9c.1-3.5-1.4-5.2-4.1-5.3s-4 1.2-4 4.3c0 4.7-.1 9.5-.1 14.2a13.2 13.2 0 00.2 2.8 1.65 1.65 0 00.9 1.2 1.79 1.79 0 001.4-.4 5.94 5.94 0 001.3-1.8 56.34 56.34 0 004.4-15zm-7.7-33.3v5.2c0 1.7.7 2.3 2.4 2.3a20.9 20.9 0 002.5-.1c3-.1 4-1.3 3.5-4.3-.8-4.3-2.9-8.1-5-11.9a2.27 2.27 0 00-1.8-.9 1.93 1.93 0 00-1.1 1.6c-.29 2.4-.29 4.69-.5 8.1zm-26.6-.3c-.1-2.5-.2-5-.5-7.5a6.5 6.5 0 00-1.1-2.2c-.6.5-1.5.8-1.8 1.5-1.5 3-3.1 6.1-4.3 9.2-1.9 4.9.2 7.3 5.4 6.6h.3c1.3-.2 2-.8 2-2.1zM52 52.51a37.1 37.1 0 003.8-.4 3.3 3.3 0 003-3c.1-1.4-.7-2.6-2.5-3.3a14.37 14.37 0 00-7.4-.7 3.47 3.47 0 00-3.4 3.1 3.73 3.73 0 002.8 3.8c1.29.3 2.59.3 3.7.5zm36.7 0a26.2 26.2 0 012.8-.1c.3 0 .6-.1.9-.1 1.6-.4 3.1-2 3.1-3.4a3.37 3.37 0 00-2.3-3.3 14.06 14.06 0 00-8.6.5c-1.8.7-2.5 1.9-2.3 3.3.2 1.6 1.4 2.6 3.3 2.9.99.1 2.09.1 3.09.2zm-17.4 48.9c1.6-.4 3.5-.8 5.3-1.4a1.3 1.3 0 00.8-1.2c0-.3-.7-.9-1.2-.9-3.1 0-6.2 0-9.4.1-.5 0-1 .7-1.4 1.1.4.5.7 1.2 1.2 1.3 1.49.4 2.89.59 4.69 1zm-17.8-43c1-.3 2.5-.7 4-1.2.3-.1.3-.7.5-1.1a3.18 3.18 0 00-.9-.3c-2.4-.1-4.9-.2-7.3-.2-.5 0-1 .5-1.5.8.3.5.6 1.2 1.1 1.3a18.11 18.11 0 004.09.7zm34.7.2a39.1 39.1 0 003.9-.7c.4-.1.6-.8.8-1.2a4.18 4.18 0 00-1.2-.8 8.55 8.55 0 00-1.6 0c-1.9 0-3.7.1-5.6.1a7.37 7.37 0 00-1.4.4c.3.4.5 1.1.9 1.2a36.26 36.26 0 004.19 1z" fill="#fff"/>
        <path d="M57.69 73.91c0 2.6.1 5.1 0 7.7a6 6 0 01-.8 2.1 5.29 5.29 0 01-2.1-1.1 8.91 8.91 0 01-1.8-3.3c-1.2-3.9-2.2-7.9-3.2-11.9a5.5 5.5 0 01-.2-2.2c.2-2.5 1.6-3.8 4.3-3.9 2.5-.1 3.8.9 3.9 3.5.1 3 0 6-.1 9.1zM84.39 88.61a9 9 0 01-4.8 5.1 20.59 20.59 0 01-16.5.3c-1.5-.6-2.7-2-4-3.2a1.85 1.85 0 01-.5-1.7c.1-.4 1-.6 1.6-.6 6.8 0 13.7 0 20.5.1zM91.49 66.71a54.67 54.67 0 01-4.4 14.9 5.94 5.94 0 01-1.3 1.8 1.49 1.49 0 01-1.4.4 1.65 1.65 0 01-.9-1.2 13.2 13.2 0 01-.2-2.8c0-4.7 0-9.5.1-14.2 0-3 1.3-4.3 4-4.3 2.61.2 4.2 1.9 4.1 5.4zM83.79 33.41c.2-3.3.2-5.7.5-8a2.45 2.45 0 011.1-1.6 2.27 2.27 0 011.8.9c2.1 3.8 4.2 7.6 5 11.9.5 3-.5 4.1-3.5 4.3-.8 0-1.7.1-2.5.1-1.7 0-2.4-.6-2.4-2.3-.1-2.2 0-4.2 0-5.3zM57.19 33.11v5.5a1.87 1.87 0 01-2 2.1h-.3c-5.3.7-7.3-1.7-5.4-6.6a77 77 0 014.3-9.2c.3-.6 1.2-1 1.8-1.5a6.5 6.5 0 011.1 2.2c.3 2.5.4 5 .5 7.5zM52 52.51a15.58 15.58 0 01-3.6-.5 3.7 3.7 0 01-2.8-3.8 3.39 3.39 0 013.4-3.1 15.52 15.52 0 017.4.7c1.7.7 2.6 1.9 2.5 3.3q-.15 2.4-3 3c-1.21.2-2.51.2-3.9.4zM88.69 52.51c-1-.1-2.1-.1-3.1-.2a3.36 3.36 0 01-3.3-2.9c-.2-1.4.5-2.6 2.3-3.3a14.06 14.06 0 018.6-.5 3.5 3.5 0 012.3 3.3c0 1.4-1.5 3-3.1 3.4a2.77 2.77 0 01-.9.1 27.15 27.15 0 00-2.8.1zM71.29 101.41c-1.8-.4-3.2-.6-4.6-1-.5-.2-.8-.9-1.2-1.3.5-.4.9-1 1.4-1.1 3.1-.1 6.2-.1 9.4-.1a1.59 1.59 0 011.2.9 1.48 1.48 0 01-.8 1.2c-1.9.6-3.8.99-5.4 1.4zM53.49 58.41a32.33 32.33 0 01-4.2-.6c-.4-.1-.7-.9-1.1-1.3.5-.3 1-.8 1.5-.8 2.4 0 4.9.1 7.3.2a3.18 3.18 0 01.9.3c-.2.4-.2 1-.5 1.1-1.39.5-2.9.8-3.9 1.1zM88.19 58.61c-1.3-.3-2.7-.5-4.1-.9-.4-.1-.6-.8-.9-1.2a7.37 7.37 0 011.4-.4c1.9-.1 3.7-.1 5.6-.1a4.3 4.3 0 011.6 0 4.18 4.18 0 011.2.8c-.3.4-.5 1.1-.8 1.2z"/>
      </g>
    </g>
  </g>
</svg>