<svg xmlns="http://www.w3.org/2000/svg" viewBox="0 0 58.2 60.8">
  <defs>
    <style>
      .cls-1{fill:#fff}
    </style>
  </defs>
  <g id="Layer_2" data-name="Layer 2">
    <g id="katman_1" data-name="katman 1">
      <path d="M2.1 22.4c1.2-.1 1.9-.2 2.5-.2-.7-2.3-1.4-4.5-2.2-7.3 1.8.4 3.2.6 4.8 1a21.88 21.88 0 01-.8-2.7c1.9-1 3.5-1.8 5.1-2.6-1.1-4.6-1.1-4.7 2.2-4.3.2-.7.5-1.3.9-2.5 1 .7 1.8 1.3 2.6 1.9s1.6.9 2.5 1.5c.3-1.7.6-3 .9-5 1.4 1.2 2.4 2 3.6 3 .2-1.7.4-3.3.6-4.9.3-.1.6-.2 1-.3.7 1.3 1.3 2.5 2.1 3.9.2-.3.4-.5.6-.8s.5-.5.9-1a7.88 7.88 0 00.8 1.6c.3.4.7 1 1.1.9s.8-.6 1.2-1C33 3 33.7 1.9 33.9 2c1.2.5 2.7 1.1 3.4 2.1s.8 2.6 1.2 4c1.7-1.7 3.4-3.4 5.1-5l.6.3C43.6 5.2 43 7 42.4 8.7c1.3-.5 2.7-.9 4-1.4.1 1 .1 1.9.2 3.3 1.3-.9 2.6-1.7 3.8-2.5.2.1.5.3.7.4-.7 1.3-1.4 2.5-2.2 4 .6.7 1.2 1.6 1.9 2.5 1.4-.5 2.8-.9 4.5-1.5-1.2 2.4-2.1 4.3-3.2 6.4 1.8.4 3.2.8 5.1 1.2-.7.7-1.2 1.1-1.8 1.7.5.3 1 .7 2.1 1.4-.9.4-1.7.8-2.4 1.1a2.77 2.77 0 01-.1.9c1.1.6 2.1 1.1 3.2 1.7-.2.3-.3.5-.5.8-.7.3-1.5.6-1.9.8-.1 1.7-.2 3.2-.3 5q.9.45 2.7 1.2c-.9.6-1.6 1.1-2.5 1.7a15.87 15.87 0 00.9 2h-2c-.5 1-1 1.9-1.7 3.3.9.9 2 2.2 3.2 3.5-.1.2-.1.3-.2.5-1.3-.4-2.5-.8-4-1.3v3.5c-3.9-2.4-3.5 2.9-6.3 2.8.4 1.6.8 3 1.4 5.3-1.7-1.5-2.8-2.4-4.4-3.7.8 1.8 1.3 3.1 1.9 4.4-.2.2-.4.3-.6.5-1.2-1.1-2.4-2.3-3.3-3.2-1 1.3-2.1 2.8-3.4 4.4-1-1.3-1.7-2.2-2.8-3.7-.2 2.3-.4 3.9-.6 5.1a41.36 41.36 0 00-4.6-3.7c-2.2-1.2-3.2 1-4.6 2.5l-1.4-2.5c-.6.2-1.2.5-2 .8-.3-1-.5-1.9-.8-2.9l-3.8 3.5a4.67 4.67 0 00-1-.5c.8-2.2 1.6-4.4 2.3-6.7-2.5 3.5-6.1 1.1-9.6 2.4.5-1.7.8-2.8 1.2-4.3-1 .3-1.7.6-2.3.8-1.1-.9-2.1-1.8-3.2-2.7-.2-.2-.5-.4-.7-.6 1.2-.8 2.5-1.6 3.7-2.4-.6-1-1-1.7-1.6-2.6H1.8c.9-1.2 1.4-2 2.1-2.9-.5-.5-1.2-1.1-2-2 1.3-1 2.4-1.9 3.6-3-1.7-.2-3.2-.4-5.5-.7 1.4-1 2.3-1.3 2.6-2 .3-.9.6-2.5 0-3-2.1-2.2-2.2-2.1.3-3.6a9.76 9.76 0 01-.8-2.3zm24.5 9.5c.1-4.7-3.3-8.5-7.5-8.6s-7.8 3.5-8 8.2 3.4 8.7 7.7 8.8 7.7-3.7 7.8-8.4zm5.2-.2c0 4.8 3.2 8.5 7.5 8.6s7.9-3.8 7.9-8.6-3.5-8.4-7.7-8.4c-4.5.1-7.7 3.6-7.7 8.4z"/>
      <path class="cls-1" d="M26.6 31.9c-.1 4.7-3.6 8.5-7.8 8.4s-7.9-4.1-7.7-8.8 3.7-8.3 8-8.2 7.5 3.9 7.5 8.6zm-4.4-2.8c-.5-2.6-1.5-3.9-3.5-3.9s-2.8 1.3-2.8 3.2 1 3.5 3 3.2c1.2-.2 2.2-1.6 3.3-2.5zM31.8 31.7c0-4.8 3.3-8.4 7.6-8.4s7.7 3.7 7.7 8.4-3.5 8.6-7.9 8.6c-4.2 0-7.5-3.8-7.4-8.6zm8.3-.5h-1.4c-.7 1.3-1.9 2.5-2.1 3.9-.2 1.7 1 3.4 2.8 2.9a4.56 4.56 0 002.9-3c0-1.2-1.4-2.5-2.2-3.8z"/>
      <path d="M22 29a2.36 2.36 0 01-.6.9c-2.2 2.1-5.5 2.3-5.5-1.6a2.9 2.9 0 012.8-3.2c1.9.1 3.8 2.2 3.3 3.9zM40 31.4c2.9.8 2.2 6-.7 6.6a2.38 2.38 0 01-2.8-2.9c.2-1.4 1.4-4 3.1-3.8.2 0 .3 0 .4.1z"/>
    </g>
  </g>
</svg>